# xmcd CD database file
#
# Track frame offsets:
#	150
#	14839
#	27599
#	41376
#	55855
#	71045
#	82793
#	98060
#	111662
#	123923
#	140469
#
# Disc length: 2092 seconds
#
# Revision: 0
# Processed by: cddbd v1.5.1PL0 Copyright (c) Steve Scherf et al.
# Submitted via: CDex 1.51
#
DISCID=96082a0b
DTITLE=Leo Stokes - Good Place to Start
DYEAR=2004
DGENRE=Country
TTITLE0=Honky-Tonk Heartache
TTITLE1=She No Longer Loves Me
TTITLE2=Touchy Situation
TTITLE3=Talk To Me
TTITLE4=Weekend Millionaire
TTITLE5=10 and 40
TTITLE6=Aint Enough Beer In Milwaukee
TTITLE7=I Like It
TTITLE8=I Should Have Waited For You
TTITLE9=Heart Of Steal
TTITLE10=Good Place To Start
EXTD=YEAR: 2004
EXTT0=
EXTT1=
EXTT2=
EXTT3=
EXTT4=
EXTT5=
EXTT6=
EXTT7=
EXTT8=
EXTT9=
EXTT10=
PLAYORDER=
